<?xml version="1.0" encoding="UTF-8"?>
<!DOCTYPE svg PUBLIC "-//W3C//DTD SVG 1.1//EN" "http://www.w3.org/Graphics/SVG/1.1/DTD/svg11.dtd">
<svg xmlns="http://www.w3.org/2000/svg" version="1.1" width="263px" height="315px" style="shape-rendering:geometricPrecision; text-rendering:geometricPrecision; image-rendering:optimizeQuality; fill-rule:evenodd; clip-rule:evenodd" xmlns:xlink="http://www.w3.org/1999/xlink">
<!-- <g><path style="opacity:0.124" fill="#fdfefe" d="M -0.5,-0.5 C 87.1667,-0.5 174.833,-0.5 262.5,-0.5C 262.5,104.5 262.5,209.5 262.5,314.5C 174.833,314.5 87.1667,314.5 -0.5,314.5C -0.5,209.5 -0.5,104.5 -0.5,-0.5 Z"/></g> -->
<g><path style="opacity:1" fill="#05a1b3" d="M 66.5,307.5 C 67.7945,305.672 68.7945,303.672 69.5,301.5C 66.2027,301.671 65.8694,301.005 68.5,299.5C 69.5,299.833 70.1667,300.5 70.5,301.5C 78.4723,302.498 86.4723,302.831 94.5,302.5C 94.5,301.167 94.5,299.833 94.5,298.5C 98.5,298.167 102.5,297.833 106.5,297.5C 106.393,295.097 107.393,293.264 109.5,292C 112.482,291.502 115.482,291.335 118.5,291.5C 119.34,284.107 123.006,278.274 129.5,274C 131.473,273.505 133.473,273.338 135.5,273.5C 135.356,268.633 135.69,264.133 136.5,260C 134.038,258.15 134.538,256.983 138,256.5C 139.438,257.9 140.271,259.567 140.5,261.5C 144.939,260.728 149.273,260.395 153.5,260.5C 152.975,259.808 152.308,259.308 151.5,259C 138.717,259.059 138.384,257.726 150.5,255C 146.75,254.558 145.75,252.724 147.5,249.5C 190.432,226.991 209.932,191.324 206,142.5C 197.658,101.658 173.825,74.3247 134.5,60.5C 133.067,58.4418 132.4,56.1085 132.5,53.5C 130.094,52.009 127.427,51.1756 124.5,51C 122.983,49.3149 121.316,47.8149 119.5,46.5C 118.607,43.9159 118.274,41.2492 118.5,38.5C 114.818,38.6653 111.152,38.4986 107.5,38C 106.594,36.3005 106.261,34.4672 106.5,32.5C 104.533,32.2606 102.699,32.5939 101,33.5C 92.9612,31.8698 84.7945,30.8698 76.5,30.5C 66.7917,31.2006 57.125,32.2006 47.5,33.5C 47.5,34.5 47.5,35.5 47.5,36.5C 41.84,37.1648 36.1733,37.8314 30.5,38.5C 28.1088,38.4407 25.7754,38.1074 23.5,37.5C 23.0941,38.5575 23.0941,39.8908 23.5,41.5C 19.3296,42.1203 15.3296,42.9536 11.5,44C 12.772,41.9555 12.4386,40.1222 10.5,38.5C 11,38.1667 11.5,37.8333 12,37.5C 13.6049,39.0639 15.4382,39.5639 17.5,39C 17.6192,37.7188 17.1192,36.5521 16,35.5C 15.6667,36.1667 15.3333,36.8333 15,37.5C 13.583,36.9221 12.7496,35.9221 12.5,34.5C 15.2656,31.9172 18.2656,29.4172 21.5,27C 73.3357,-3.39108 126.336,-5.39108 180.5,21C 246.26,62.544 271.426,121.711 256,198.5C 236.992,257.565 197.492,294.731 137.5,310C 121.574,312.331 105.574,312.998 89.5,312C 81.6082,311.392 73.9415,309.892 66.5,307.5 Z"/></g>
<g><path style="opacity:1" fill="#07a6b7" d="M 134.5,60.5 C 130.803,59.9922 127.136,59.3255 123.5,58.5C 119.119,56.7895 114.453,56.1228 109.5,56.5C 88.0665,56.0381 68.3998,61.5381 50.5,73C 45.6302,76.3783 41.2969,80.2117 37.5,84.5C 37.1667,84.5 36.8333,84.5 36.5,84.5C 28.1742,68.2149 17.1742,53.8816 3.5,41.5C 6.2273,38.7675 9.2273,36.4342 12.5,34.5C 12.7496,35.9221 13.583,36.9221 15,37.5C 15.3333,36.8333 15.6667,36.1667 16,35.5C 17.1192,36.5521 17.6192,37.7188 17.5,39C 15.4382,39.5639 13.6049,39.0639 12,37.5C 11.5,37.8333 11,38.1667 10.5,38.5C 12.4386,40.1222 12.772,41.9555 11.5,44C 15.3296,42.9536 19.3296,42.1203 23.5,41.5C 23.0941,39.8908 23.0941,38.5575 23.5,37.5C 25.7754,38.1074 28.1088,38.4407 30.5,38.5C 36.1733,37.8314 41.84,37.1648 47.5,36.5C 47.5,35.5 47.5,34.5 47.5,33.5C 57.125,32.2006 66.7917,31.2006 76.5,30.5C 84.7945,30.8698 92.9612,31.8698 101,33.5C 102.699,32.5939 104.533,32.2606 106.5,32.5C 106.261,34.4672 106.594,36.3005 107.5,38C 111.152,38.4986 114.818,38.6653 118.5,38.5C 118.274,41.2492 118.607,43.9159 119.5,46.5C 121.316,47.8149 122.983,49.3149 124.5,51C 127.427,51.1756 130.094,52.009 132.5,53.5C 132.4,56.1085 133.067,58.4418 134.5,60.5 Z"/></g>
<g><path style="opacity:0.05" fill="#fefefe" d="M 109.5,56.5 C 113.943,57.8015 118.609,58.4681 123.5,58.5C 127.136,59.3255 130.803,59.9922 134.5,60.5C 173.825,74.3247 197.658,101.658 206,142.5C 209.932,191.324 190.432,226.991 147.5,249.5C 107.541,265.525 71.041,259.858 38,232.5C 37.5357,231.906 37.369,231.239 37.5,230.5C 66.4974,199.92 74.9974,164.254 63,123.5C 57.061,108.746 48.561,95.7464 37.5,84.5C 41.2969,80.2117 45.6302,76.3783 50.5,73C 68.3998,61.5381 88.0665,56.0381 109.5,56.5 Z"/></g>
<!-- <g><path style="opacity:1" fill="#83d1d9" d="M 109.2,56.5 C 100.453,56.1228 119.119,58.7895 123.5,58.5C 118.609,58.4681 113.943,57.8015 109.5,56.5 Z"/></g> -->
<!-- <g><path style="opacity:0.984" fill="#414144" d="M 36.5,84.5 C 36.8333,84.5 37.1667,84.5 37.5,84.5C 48.561,95.7464 57.061,108.746 63,123.5C 74.9974,164.254 66.4974,199.92 37.5,230.5C 37.1667,230.5 36.8333,230.5 36.5,230.5C 28.3335,215.488 23.0002,199.488 20.5,182.5C 20.3755,177.951 19.7089,173.618 18.5,169.5C 18.5,160.833 18.5,152.167 18.5,143.5C 19.9034,140.091 20.5701,136.425 20.5,132.5C 22.9799,115.542 28.3132,99.5422 36.5,84.5 Z"/></g> -->
<!-- <g><path style="opacity:0.984" fill="#fff" d="M 36.5,84.5 C 36.8333,84.5 37.1667,84.5 37.5,84.5C 48.561,95.7464 57.061,108.746 63,123.5C 74.9974,164.254 66.4974,199.92 37.5,230.5C 37.1667,230.5 36.8333,230.5 36.5,230.5C 28.3335,215.488 23.0002,199.488 20.5,182.5C 20.3755,177.951 19.7089,173.618 18.5,169.5C 18.5,160.833 18.5,152.167 18.5,143.5C 19.9034,140.091 20.5701,136.425 20.5,132.5C 22.9799,115.542 28.3132,99.5422 36.5,84.5 Z"/></g> -->
<!-- <g><path style="opacity:0.847" fill="#a5a5a7" d="M 20.5,132.5 C 20.5701,136.425 19.9034,140.091 18.5,143.5C 18.4299,139.575 19.0966,135.909 20.5,132.5 Z"/></g> -->
<!-- <g><path style="opacity:0.91" fill="#a3a3a4" d="M 18.5,169.5 C 19.7089,173.618 20.3755,177.951 20.5,182.5C 18.9462,178.433 18.2796,174.1 18.5,169.5 Z"/></g> -->
<g><path style="opacity:1" fill="#06a6b7" d="M 36.5,230.5 C 36.8333,230.5 37.1667,230.5 37.5,230.5C 37.369,231.239 37.5357,231.906 38,232.5C 71.041,259.858 107.541,265.525 147.5,249.5C 145.75,252.724 146.75,254.558 150.5,255C 138.384,257.726 138.717,259.059 151.5,259C 152.308,259.308 152.975,259.808 153.5,260.5C 149.273,260.395 144.939,260.728 140.5,261.5C 140.271,259.567 139.438,257.9 138,256.5C 134.538,256.983 134.038,258.15 136.5,260C 135.69,264.133 135.356,268.633 135.5,273.5C 133.473,273.338 131.473,273.505 129.5,274C 123.006,278.274 119.34,284.107 118.5,291.5C 115.482,291.335 112.482,291.502 109.5,292C 107.393,293.264 106.393,295.097 106.5,297.5C 102.5,297.833 98.5,298.167 94.5,298.5C 94.5,299.833 94.5,301.167 94.5,302.5C 86.4723,302.831 78.4723,302.498 70.5,301.5C 70.1667,300.5 69.5,299.833 68.5,299.5C 65.8694,301.005 66.2027,301.671 69.5,301.5C 68.7945,303.672 67.7945,305.672 66.5,307.5C 42.5271,301.68 21.5271,290.347 3.5,273.5C 17.1716,261.127 28.1716,246.794 36.5,230.5 Z"/></g>
</svg>
